<svg version="1.1" viewBox="0 0 128 128" xmlns="http://www.w3.org/2000/svg"><path d="m67.52 18.63c-2.014 3.398-2.906 11.28-2.68 16.87l-0.02539 0.01758c0.1907 5.05 0.8761 9.688 1.98 13.95-16.51 4.091-34.49 14.9-44.54 25.36-4.706-6.352-6.572-11.56-7.127-15.51-0.7-4.989 0.4894-9.564 3.443-13.23 4.623-5.743 11.19-6.148 17.95-5.012-0.131 1.067 0.008547 2.087 0.4355 2.717 1.786 2.639 11.39 3.565 17.12 1.008-4.229-5.926-12.79-8.818-15.17-7.658-0.786 0.384-1.379 1.088-1.785 1.91-2.335-0.418-4.654-0.7278-6.348-0.7148-5.957 0.044-10.51 2.125-13.92 6.363-3.347 4.157-4.7 9.32-3.912 14.93 0.746 5.314 3.376 10.97 7.785 16.83-0.732 0.786-1.439 1.562-2.121 2.324-10.75 12.02-18.6 24.92-18.6 27.06v1.107h14.18l-0.248-1.314c-0.8-4.232 0.7973-9.519 4.072-13.47 2.057-2.481 5.464-5.315 10.81-6.621 4.754 4.64 10.81 9.568 17.55 14.32h10.54v-1.107c0-1.249-0.6201-2.342-1.744-3.078-1.665-1.088-4.234-1.239-6.594-0.4336-2.25-2.506-3.513-5.852-3.785-10.01 22.86 2.024 44.74 11.26 69.41 24.15h13.58l0.1777-0.8887c0.254-1.267-0.4367-2.965-1.846-4.541h0.00586c-2.431-2.72-7.194-4.007-11.17-3.912-2.743-3.265-17.83-19.16-18.71-20.09 5.611-3.938 10.47-9.067 14.21-15.14h-5.461v-1.594h6.404c0.4165-0.734 0.8275-1.473 1.211-2.232h-7.615v-1.594h8.367c3.364-7.258 5.239-15.58 5.059-24.71l0.01953 0.009766c-9e-3 -2.495-0.7868-13.04-2.215-15.94-3.872 1.471-10.92 6.239-12.51 11.11-7.642-1.14-16.26-1.005-23.8 0.3008-1.26-5.245-7.589-9.258-12.36-11.52zm45.81 40.74c-0.2473 0.5336-0.4885 1.072-0.752 1.594h5.297v-1.594h-4.545zm-1.963 3.826c-0.3057 0.5387-0.6205 1.069-0.9434 1.594h7.451v-1.594h-6.508zm-42.98-41.49c1.123 6.127 3.16 9.97 7.574 11.86 0.5598-0.1602 1.169-0.2828 1.752-0.4258-0.595 0.1454-1.181 0.2996-1.752 0.4629-4.408-1.884-6.45-5.727-7.572-11.86-0.03416 0.1357-0.06277 0.2803-0.0957 0.418 0.0348-0.1458 0.05757-0.3095 0.09375-0.4531zm46.66 0.1719c0.01055 0.04501 0.01703 0.1063 0.02734 0.1523-0.00825-0.03661-0.01502-0.07927-0.02343-0.1152-0.861 3.941-2.436 8.452-6.496 11.4-3.997-1.102-8.586-1.687-13.27-1.838l-2.443 8.43-3.82-8.379c-3.885 0.2139-7.689 0.7336-11.12 1.559 3.433-0.8277 7.233-1.353 11.12-1.574l-0.3203-0.7031 6.824-0.1348-0.2246 0.7754c4.672 0.1439 9.256 0.7239 13.25 1.826 4.061-2.953 5.636-7.461 6.496-11.4zm-19.75 9.576c-2.092-0.06443-4.193-0.0562-6.279 0.0625l0.007813 0.01562c2.081-0.1146 4.178-0.118 6.264-0.05078l0.007812-0.02734zm10.22-1.303 0.1699 0.03125-0.1699-0.0293v-0.001953zm-21.42 7.43c1.325 0 2.379 0.6088 3.047 1.758 1.186 2.037 1.046 5.561 0.2422 9.146h11.49c1.527-4.485 4.715-6.6 10.04-6.6v1.434c-5.772 0-7.391 2.448-8.545 5.166h6.27l-0.01367 1.428-6.221 0.007812h-0.00195-0.5762c-0.7094 2.437-0.1693 4.576 1.531 7.084l-0.00781 0.001953c0.0013 0.002741 0.00161 0.005518 0.00391 0.007812-0.383 0.245-8.098 5.258-8.098 5.258l5.16 3.191-0.7656 1.215-5.564-3.633-5.156 3.398-0.7891-1.197 4.611-3.039-8.193-5.158 0.3398-0.5977c1.049-1.846 1.981-4.176 2.645-6.531h-6.184v-1.436h6.549c0.807-3.453 0.9661-6.753-0.005859-8.426-0.416-0.71-0.9906-1.043-1.809-1.043-3.741 0-5.286 3.95-5.354 4.125l-1.344-0.5039c0.077-0.207 1.95-5.057 6.697-5.057zm15.73 12.34c5.83e-4 -0.002005 0.001367-0.003854 0.001953-0.005859l-1.463 0.005859h1.461zm-1.461 0h-11.34c-0.602 2.221-1.426 4.39-2.314 6.17h14.6c-1.255-2.1-1.458-4.546-0.9492-6.17zm-30.69-5.863 6.559 3.48-5.891 0.4004-0.668-3.881zm48.44 2.543-0.9394 2.945-4.414-0.6699 5.354-2.275zm-46.83 4.549 4.016 1.605-3.346 0.9355-0.6699-2.541zm-1.902 0.4512c0.8301 2.755 1.845 5.34 3.018 7.771h8.039v1.594h-7.227c0.4003 0.7604 0.818 1.504 1.25 2.232h5.977v1.594h-4.988c4.849 7.524 11.39 13.29 18.81 17.66 0.8262-0.472 1.636-0.9729 2.436-1.492l1.943 2.094 0.2109-0.3242 2.676 2.543-0.5781 0.2637 3.225 3.473 0.1641-0.125 2.145 2.273-0.252 0.06445 10.13 10.91 0.8574-0.07422c5.369-0.46 8.42 2.452 9.229 3.355 0.592 0.663 0.9505 1.267 1.145 1.742h-0.02149c-0.1988-0.4714-0.5446-1.058-1.125-1.701-0.807-0.906-3.859-3.817-9.227-3.355l-0.8594 0.07227-10.16-10.94-7.48 1.932 5.432-4.137-3.23-3.477-5.547 2.531 3.252-5.004-1.924-2.07a47.54 47.54 0 0 1-2.436 1.484c-7.429-4.369-13.98-10.15-18.83-17.7h-7.902v-1.594h6.916c-0.4308-0.7283-0.847-1.472-1.246-2.232h-5.67v-1.594h4.857c-1.165-2.421-2.171-4.995-2.996-7.736-3.53 0.8728-7.18 2.092-10.84 3.566l3.508 10.4-10.69-7.172c-1.071 0.5323-2.134 1.088-3.191 1.658l3.584 6.182-7.637-3.877c-1.664 0.9933-3.293 2.027-4.881 3.098l1.68 6-5.145-3.555c-3.747 2.767-7.181 5.711-10.09 8.74-0.005754-0.00718-0.01378-0.01431-0.01953-0.02148 2.907-3.029 6.336-5.974 10.08-8.74l-0.4434-0.3066 3.746-2.809 0.1836 0.6562c1.579-1.065 3.201-2.092 4.855-3.08l-0.4902-0.25 4.285-2.543 0.2754 0.4746c1.051-0.5674 2.11-1.119 3.176-1.648l-0.2441-0.1641 7.359-3.346 0.0918 0.2734c3.662-1.475 7.315-2.695 10.85-3.568zm-10.85 3.568c-2.41 0.971-4.821 2.05-7.207 3.236l0.0332 0.02148c2.378-1.182 4.783-2.257 7.186-3.225l-0.01172-0.0332zm-10.38 4.885c-1.375 0.7421-2.731 1.518-4.07 2.318l0.03516 0.01758c1.333-0.7959 2.684-1.566 4.053-2.305l-0.01758-0.03125zm-8.926 5.398c-1.189 0.8016-2.352 1.621-3.486 2.459l0.03125 0.02148c1.128-0.8329 2.283-1.648 3.465-2.445l-0.009766-0.03516zm33.16-6.08c0.2604 0.5414 0.5363 1.068 0.8125 1.594h0.01758c-0.2766-0.5255-0.5516-1.053-0.8125-1.594h-0.01758zm2.059 3.826c0.3197 0.5405 0.6498 1.07 0.9863 1.594h0.02344c-0.3373-0.5234-0.6677-1.053-0.9883-1.594h-0.02148zm24.18 19.88 2.295 2.473 0.0293-0.01367-2.309-2.482-0.01563 0.02344zm5.525 5.949 2.049 2.205 0.03125-0.009766-2.057-2.213-0.02344 0.01758zm11.83-35.87-0.8027 2.408-3.346-1.205 4.148-1.203zm-27.96 4.367 6.061 3.816 5.783-3.812-11.84-0.003906zm-39.57 14.52 0.01172 0.003906c-1.103 4.064-1.676 7.711-1.729 10.94-0.001938-1.67e-4 -0.003922 1.67e-4 -0.00586 0 0.04988-3.225 0.624-6.875 1.723-10.94zm-24.3 6.215a80.41 80.41 0 0 0 4.857 5.449c-0.009555 0.002872-0.0178 0.006884-0.02734 0.009765a80.73 80.73 0 0 1-4.83-5.416c-10.53 11.3-17.66 22.49-19.48 26.41h-0.02539c1.795-3.883 8.944-15.11 19.51-26.45zm-10.62 24.71c-0.01559 0.5894 1.22e-4 1.17 0.05078 1.74h-0.001953c-0.04904-0.5696-0.06573-1.151-0.04883-1.74z"/></svg>
